<svg preserveAspectRatio="none" overflow="visible" style="display: block;" width="24" height="24" viewBox="0 0 24 24" fill="none" xmlns="http://www.w3.org/2000/svg">
<g id="Icon &#194;&#183; truck">
<path id="Vector" d="M2.5 6.5H13.5V16H2.5V6.5Z" stroke="#1E9A36" stroke-width="1.7" stroke-linecap="round" stroke-linejoin="round"/>
<path id="Vector_2" d="M13.5 9.5H17.5L21 13V16H13.5" stroke="#1E9A36" stroke-width="1.7" stroke-linecap="round" stroke-linejoin="round"/>
<path id="Vector_3" d="M6.5 19.5C7.60457 19.5 8.5 18.6046 8.5 17.5C8.5 16.3954 7.60457 15.5 6.5 15.5C5.39543 15.5 4.5 16.3954 4.5 17.5C4.5 18.6046 5.39543 19.5 6.5 19.5Z" stroke="#1E9A36" stroke-width="1.7" stroke-linecap="round" stroke-linejoin="round"/>
<path id="Vector_4" d="M17 19.5C18.1046 19.5 19 18.6046 19 17.5C19 16.3954 18.1046 15.5 17 15.5C15.8954 15.5 15 16.3954 15 17.5C15 18.6046 15.8954 19.5 17 19.5Z" stroke="#1E9A36" stroke-width="1.7" stroke-linecap="round" stroke-linejoin="round"/>
</g>
</svg>
