<svg preserveAspectRatio="none" overflow="visible" style="display: block;" width="91" height="79" viewBox="0 0 91 79" fill="none" xmlns="http://www.w3.org/2000/svg">
<g id="Group 1000015872">
<circle id="Ellipse 20" cx="3.5" cy="75.5" r="3.5" fill="#28AE3D" fill-opacity="0.4"/>
<circle id="Ellipse 25" cx="3.5" cy="51.5" r="3.5" fill="#28AE3D" fill-opacity="0.4"/>
<circle id="Ellipse 30" cx="3.5" cy="27.5" r="3.5" fill="#28AE3D" fill-opacity="0.4"/>
<circle id="Ellipse 35" cx="3.5" cy="3.5" r="3.5" fill="#28AE3D" fill-opacity="0.4"/>
<circle id="Ellipse 21" cx="24.5" cy="75.5" r="3.5" fill="#28AE3D" fill-opacity="0.4"/>
<circle id="Ellipse 26" cx="24.5" cy="51.5" r="3.5" fill="#28AE3D" fill-opacity="0.4"/>
<circle id="Ellipse 31" cx="24.5" cy="27.5" r="3.5" fill="#28AE3D" fill-opacity="0.4"/>
<circle id="Ellipse 36" cx="24.5" cy="3.5" r="3.5" fill="#28AE3D" fill-opacity="0.4"/>
<circle id="Ellipse 22" cx="45.5" cy="75.5" r="3.5" fill="#28AE3D" fill-opacity="0.4"/>
<circle id="Ellipse 27" cx="45.5" cy="51.5" r="3.5" fill="#28AE3D" fill-opacity="0.4"/>
<circle id="Ellipse 32" cx="45.5" cy="27.5" r="3.5" fill="#28AE3D" fill-opacity="0.4"/>
<circle id="Ellipse 37" cx="45.5" cy="3.5" r="3.5" fill="#28AE3D" fill-opacity="0.4"/>
<circle id="Ellipse 23" cx="66.5" cy="75.5" r="3.5" fill="#28AE3D" fill-opacity="0.4"/>
<circle id="Ellipse 28" cx="66.5" cy="51.5" r="3.5" fill="#28AE3D" fill-opacity="0.4"/>
<circle id="Ellipse 33" cx="66.5" cy="27.5" r="3.5" fill="#28AE3D" fill-opacity="0.4"/>
<circle id="Ellipse 38" cx="66.5" cy="3.5" r="3.5" fill="#28AE3D" fill-opacity="0.4"/>
<circle id="Ellipse 24" cx="87.5" cy="75.5" r="3.5" fill="#28AE3D" fill-opacity="0.4"/>
<circle id="Ellipse 29" cx="87.5" cy="51.5" r="3.5" fill="#28AE3D" fill-opacity="0.4"/>
<circle id="Ellipse 34" cx="87.5" cy="27.5" r="3.5" fill="#28AE3D" fill-opacity="0.4"/>
<circle id="Ellipse 39" cx="87.5" cy="3.5" r="3.5" fill="#28AE3D" fill-opacity="0.4"/>
</g>
</svg>
